<svg version="1.1" viewBox="0.0 0.0 960.0 720.0" fill="none" stroke="none" stroke-linecap="square" stroke-miterlimit="10" xmlns:xlink="http://www.w3.org/1999/xlink" xmlns="http://www.w3.org/2000/svg"><clipPath id="p.0"><path d="m0 0l960.0 0l0 720.0l-960.0 0l0 -720.0z" clip-rule="nonzero"/></clipPath><g clip-path="url(#p.0)"><path fill="#000000" fill-opacity="0.0" d="m0 0l960.0 0l0 720.0l-960.0 0z" fill-rule="evenodd"/><path fill="#1a0b41" d="m185.33858 228.46982l326.6772 0l0 326.07877l-326.6772 0z" fill-rule="evenodd"/><path stroke="#dcae52" stroke-width="12.0" stroke-linejoin="round" stroke-linecap="butt" d="m185.33858 228.46982l326.6772 0l0 326.07877l-326.6772 0z" fill-rule="evenodd"/><path fill="#dcae52" d="m320.86465 423.1717q0 5.46875 -1.953125 10.3125q-1.953125 4.84375 -5.390625 8.515625q-3.4375 3.671875 -8.09375 5.984375q-4.640625 2.296875 -9.953125 2.6875l10.234375 23.046875l-10.078125 0l-10.234375 -23.046875q-5.703125 0 -10.75 -2.140625q-5.03125 -2.15625 -8.78125 -5.90625q-3.75 -3.75 -5.90625 -8.75q-2.140625 -5.0 -2.140625 -10.703125l0 -60.15625q0 -5.703125 2.140625 -10.703125q2.15625 -5.0 5.90625 -8.75q3.75 -3.75 8.78125 -5.890625q5.046875 -2.15625 10.75 -2.15625l7.96875 0q5.703125 0 10.703125 2.15625q5.0 2.140625 8.75 5.890625q3.75 3.75 5.890625 8.75q2.15625 5.0 2.15625 10.703125l0 60.15625l0 0zm-10.078125 -60.15625q0 -3.75 -1.40625 -6.984375q-1.40625 -3.25 -3.828125 -5.671875q-2.421875 -2.421875 -5.671875 -3.828125q-3.234375 -1.40625 -6.984375 -1.40625l-7.03125 0q-3.75 0 -7.0 1.40625q-3.234375 1.40625 -5.703125 3.828125q-2.453125 2.421875 -3.859375 5.671875q-1.40625 3.234375 -1.40625 6.984375l0 60.15625q0 3.75 1.40625 7.0q1.40625 3.234375 3.859375 5.703125q2.46875 2.453125 5.703125 3.859375q3.25 1.40625 7.0 1.40625l7.03125 0q3.75 0 6.984375 -1.40625q3.25 -1.40625 5.671875 -3.859375q2.421875 -2.46875 3.828125 -5.703125q1.40625 -3.25 1.40625 -7.0l0 -60.15625zm84.375 64.140625q0 4.84375 -1.84375 9.140625q-1.828125 4.296875 -5.03125 7.5q-3.203125 3.203125 -7.5 5.046875q-4.296875 1.828125 -9.140625 1.828125l-6.40625 0q-4.84375 0 -9.140625 -1.828125q-4.296875 -1.84375 -7.5 -5.046875q-3.203125 -3.203125 -5.046875 -7.5q-1.828125 -4.296875 -1.828125 -9.140625l0 -36.09375q0 -4.84375 1.828125 -9.140625q1.84375 -4.296875 5.046875 -7.5q3.203125 -3.203125 7.5 -5.03125q4.296875 -1.84375 9.140625 -1.84375l6.40625 0q4.84375 0 9.140625 1.84375q4.296875 1.828125 7.5 5.03125q3.203125 3.203125 5.03125 7.5q1.84375 4.296875 1.84375 9.140625l0 18.828125l-43.828125 0l0 17.8125q0 2.890625 1.09375 5.4375q1.09375 2.53125 2.96875 4.40625q1.875 1.875 4.40625 2.96875q2.546875 1.09375 5.4375 1.09375l6.40625 0q2.890625 0 5.421875 -1.09375q2.546875 -1.09375 4.421875 -2.96875q1.875 -1.875 2.96875 -4.40625q1.09375 -2.546875 1.09375 -5.4375l0 -5.3125l9.609375 1.5625l0 3.203125l0 0zm-9.609375 -36.640625q0 -2.890625 -1.09375 -5.421875q-1.09375 -2.546875 -2.96875 -4.421875q-1.875 -1.875 -4.421875 -2.96875q-2.53125 -1.09375 -5.421875 -1.09375l-6.40625 0q-2.890625 0 -5.4375 1.09375q-2.53125 1.09375 -4.40625 2.96875q-1.875 1.875 -2.96875 4.421875q-1.09375 2.53125 -1.09375 5.421875l0 11.875l34.21875 0l0 -11.875zm52.34375 -12.265625q-2.890625 0 -5.4375 1.09375q-2.53125 1.09375 -4.40625 2.96875q-1.875 1.875 -2.96875 4.421875q-1.09375 2.53125 -1.09375 5.421875l0 56.953125l-9.609375 0l0 -80.0l3.203125 0l5.234375 8.125q3.28125 -4.453125 8.234375 -7.0625q4.96875 -2.625 10.828125 -2.625l5.625 0l0 10.703125l-9.609375 0z" fill-rule="nonzero"/></g></svg>